# xmcd
#
# Track frame offsets:
#	150
#	3569
#	9653
#	26731
#	36741
#	55193
#	73478
#	88961
#	107713
#	129088
#	145937
#	151674
#	163380
#	179211
#	195170
#	208283
#	218127
#
# Disc length: 3270 seconds
#
# Revision: 2
# Processed by: cddbd v1.5.2PL0 Copyright (c) Steve Scherf et al.
# Submitted via: EZCDAudioConverter 2.1.7.1
#
DISCID=020cc411
DTITLE=Jellyfish - Spilt Milk 2/2
DYEAR=1993
DGENRE=
TTITLE0=Spilt Milk Intro [Demo]
TTITLE1=Hush [Demo]
TTITLE2=Joining A Fan Club [Demo]
TTITLE3=Sebrina, Paste And Plato [Demo]
TTITLE4=New Mistake [Demo]
TTITLE5=Glutton Of Sympathy [Demo]
TTITLE6=The Ghost At Number One [Demo]
TTITLE7=All Is Forgiven [Demo]
TTITLE8=Russian Hill [Demo]
TTITLE9=He's My Best Friend [Demo]
TTITLE10=Spilt Milk Outro [Demo]
TTITLE11=Think About Your Troubles
TTITLE12=That Is Why [Live]
TTITLE13=The Ghost At Number One [Live]
TTITLE14=Joining A Fan Club [Live]
TTITLE15=S.O.S. [Live]
TTITLE16=Fan Club Message
EXTD=
EXTT0=
EXTT1=
EXTT2=
EXTT3=
EXTT4=
EXTT5=
EXTT6=
EXTT7=
EXTT8=
EXTT9=
EXTT10=
EXTT11=
EXTT12=
EXTT13=
EXTT14=
EXTT15=
EXTT16=
PLAYORDER=
